<svg width="200" height="150" xmlns="http://www.w3.org/2000/svg">
  <defs>
    <linearGradient id="bg" x1="0%" y1="0%" x2="100%" y2="100%">
      <stop offset="0%" style="stop-color:#f3f4f6;stop-opacity:1" />
      <stop offset="100%" style="stop-color:#e5e7eb;stop-opacity:1" />
    </linearGradient>
  </defs>
  
  <rect width="200" height="150" fill="url(#bg)" rx="8"/>
  
  <!-- Cloud icon -->
  <g transform="translate(70, 40)">
    <path d="M25 40c-5.5 0-10-4.5-10-10 0-3 1.5-5.8 4-7.5C19 15 24.5 10 30 10c8.3 0 15 6.7 15 15 0 2-0.5 3.9-1.3 5.5C47.3 32 50 35.8 50 40c0 5.5-4.5 10-10 10H25z" 
          fill="#9ca3af" opacity="0.6"/>
    
    <!-- Offline slash -->
    <line x1="15" y1="15" x2="55" y2="55" stroke="#ef4444" stroke-width="3" stroke-linecap="round"/>
  </g>
  
  <!-- Text -->
  <text x="100" y="95" font-family="system-ui, -apple-system, sans-serif" 
        font-size="12" fill="#6b7280" text-anchor="middle">
    Image not available offline
  </text>
  
  <!-- EdVise logo/text -->
  <text x="100" y="115" font-family="system-ui, -apple-system, sans-serif" 
        font-size="10" fill="#9ca3af" text-anchor="middle" font-weight="600">
    EdVise Pathways
  </text>
</svg>